<svg xmlns="http://www.w3.org/2000/svg" viewBox="0 0 168 168">
  <circle cx="84" cy="84" r="84" fill="#1db954"/>
  <path d="M120.3 112.3c-1.6 0-2.6-.5-3.9-1.3-10.8-6.5-24-9.9-38.2-9.9-7.9 0-15.9 1-23.4 2.8-1.2.3-2.8.7-3.9.7-3.2 0-5.4-2.4-5.4-5.4 0-3.3 2.1-5.1 4.6-5.6 9-2.2 18.4-3.4 28.2-3.4 16.4 0 31.7 3.9 44.4 11.4 2.1 1.2 3.3 2.6 3.3 5.4 0 3.1-2.5 5.3-5.7 5.3zm8.7-20.4c-2 0-3.3-.7-4.7-1.5-12.4-7.4-30-11.7-48-11.7-9.6 0-18.5 1.4-25.2 3.2-1.7.5-2.7.9-4.2.9-3.7 0-6.7-3-6.7-6.7 0-3.8 2-6.1 5.3-7 8.5-2.4 18.6-3.8 30.7-3.8 20.3 0 39.9 5.1 54.4 14.4 2.6 1.6 4.1 3.5 4.1 6.9 0 3.7-2.9 6.3-5.7 6.3zm10.1-23.6c-2.2 0-3.5-.6-5.3-1.6-14-8.3-34.3-12.5-54.3-12.5-10.5 0-21.4 1.3-30.9 3.7-1.4.4-3.1 1-5.1 1-4.5 0-8-3.6-8-8 0-4.7 2.9-7.2 5.9-8 11.5-3.2 24-5 38.1-5 22.6 0 45.2 5.2 61.7 15.4 2.8 1.7 4.8 4.2 4.8 8.1 0 4.5-3.5 7.9-7 7.9z" fill="white"/>
</svg>